<svg id="bell_icon" xmlns="http://www.w3.org/2000/svg" width="21.571" height="25.886" viewBox="0 0 21.571 25.886">
  <g id="Group_3" data-name="Group 3">
    <g id="Group_2" data-name="Group 2" transform="translate(0)">
      <path id="Path_1" data-name="Path 1" d="M64.169,21.834l-1.852-3.087a9.169,9.169,0,0,1-1.307-4.718v-2.7a7.56,7.56,0,0,0-5.393-7.232V2.157a2.157,2.157,0,0,0-4.314,0V4.093a7.56,7.56,0,0,0-5.393,7.232v2.7A9.175,9.175,0,0,1,44.6,18.746l-1.852,3.087a.54.54,0,0,0,.462.818H63.707a.539.539,0,0,0,.463-.817Z" transform="translate(-42.675)" fill="#6e6e6e"/>
    </g>
  </g>
  <g id="Group_5" data-name="Group 5" transform="translate(7.389 23.729)">
    <g id="Group_4" data-name="Group 4">
      <path id="Path_2" data-name="Path 2" d="M188.815,469.333a3.752,3.752,0,0,0,6.793,0Z" transform="translate(-188.815 -469.333)" fill="#6e6e6e"/>
    </g>
  </g>
</svg>
