<svg id="bottles_icon" xmlns="http://www.w3.org/2000/svg" width="35" height="35" viewBox="0 0 35 35">
  <circle id="Ellipse_8" data-name="Ellipse 8" cx="17.5" cy="17.5" r="17.5" fill="#00d2ad"/>
  <g id="_006-sauces" data-name="006-sauces" transform="translate(7 8)">
    <g id="Group_51" data-name="Group 51" transform="translate(10.625 7.07)">
      <g id="Group_50" data-name="Group 50">
        <path id="Path_23" data-name="Path 23" d="M280.762,181h-8.149a2.869,2.869,0,0,0-.613,1.758v.586h9.375v-.586A2.869,2.869,0,0,0,280.762,181Z" transform="translate(-272 -181)" fill="#fff"/>
      </g>
    </g>
    <g id="Group_53" data-name="Group 53" transform="translate(11.797)">
      <g id="Group_52" data-name="Group 52">
        <path id="Path_24" data-name="Path 24" d="M308.445,3.555h-.75L306.657.4A.585.585,0,0,0,306.1,0H304.93a.585.585,0,0,0-.556.4l-1.038,3.154h-.75a.586.586,0,0,0-.586.586V5.9h7.031V4.141A.586.586,0,0,0,308.445,3.555Z" transform="translate(-302)" fill="#fff"/>
      </g>
    </g>
    <g id="Group_55" data-name="Group 55" transform="translate(10.625 10.586)">
      <g id="Group_54" data-name="Group 54">
        <path id="Path_25" data-name="Path 25" d="M272,271v7.656a1.76,1.76,0,0,0,1.758,1.758h5.859a1.76,1.76,0,0,0,1.758-1.758V271Z" transform="translate(-272 -271)" fill="#fff"/>
      </g>
    </g>
    <g id="Group_57" data-name="Group 57" transform="translate(1.172)">
      <g id="Group_56" data-name="Group 56">
        <path id="Path_26" data-name="Path 26" d="M36.445,3.555H35.7L34.657.4A.585.585,0,0,0,34.1,0H32.93a.585.585,0,0,0-.556.4L31.336,3.555h-.75A.586.586,0,0,0,30,4.141V5.9h7.031V4.141A.586.586,0,0,0,36.445,3.555Z" transform="translate(-30)" fill="#fff"/>
      </g>
    </g>
    <g id="Group_59" data-name="Group 59" transform="translate(0 12.93)">
      <g id="Group_58" data-name="Group 58">
        <path id="Path_27" data-name="Path 27" d="M0,331v5.313a1.76,1.76,0,0,0,1.758,1.758H7.617a1.76,1.76,0,0,0,1.758-1.758V331Z" transform="translate(0 -331)" fill="#fff"/>
      </g>
    </g>
    <g id="Group_61" data-name="Group 61" transform="translate(0 7.07)">
      <g id="Group_60" data-name="Group 60">
        <path id="Path_28" data-name="Path 28" d="M8.762,181H.613A2.869,2.869,0,0,0,0,182.758v2.93H9.375v-2.93A2.869,2.869,0,0,0,8.762,181Z" transform="translate(0 -181)" fill="#fff"/>
      </g>
    </g>
  </g>
</svg>
