<svg id="bread_icon" xmlns="http://www.w3.org/2000/svg" width="35" height="35" viewBox="0 0 35 35">
  <circle id="Ellipse_3" data-name="Ellipse 3" cx="17.5" cy="17.5" r="17.5" fill="#ffa00b"/>
  <g id="_001-croissant" data-name="001-croissant" transform="translate(7 7)">
    <g id="Group_30" data-name="Group 30" transform="translate(0 12.422)">
      <g id="Group_29" data-name="Group 29">
        <path id="Path_5" data-name="Path 5" d="M3.991,323.363,2.819,318l-.993.635A3.779,3.779,0,0,0,0,321.859a3.717,3.717,0,0,0,4.388,3.655l.6-.11A4.059,4.059,0,0,1,3.991,323.363Z" transform="translate(0 -318)" fill="#fff"/>
      </g>
    </g>
    <g id="Group_32" data-name="Group 32" transform="translate(12.418)">
      <g id="Group_31" data-name="Group 31">
        <path id="Path_6" data-name="Path 6" d="M324.038.771A3.73,3.73,0,0,0,321.756,0a3.772,3.772,0,0,0-3.216,1.812L317.9,2.819l5.456,1.191a3.887,3.887,0,0,1,1.949.971l.116-.631A3.661,3.661,0,0,0,324.038.771Z" transform="translate(-317.897)" fill="#fff"/>
      </g>
    </g>
    <g id="Group_34" data-name="Group 34" transform="translate(3.758 9.081)">
      <g id="Group_33" data-name="Group 33">
        <path id="Path_7" data-name="Path 7" d="M102.295,242.077l-5.009-8.348a4,4,0,0,1-.481-1.26,3.044,3.044,0,0,0-.55,2.32l1.34,6.136a2.93,2.93,0,0,0,4.047,2.224l1.1-.49A4.1,4.1,0,0,1,102.295,242.077Z" transform="translate(-96.204 -232.469)" fill="#fff"/>
      </g>
    </g>
    <g id="Group_36" data-name="Group 36" transform="translate(5.439 5.439)">
      <g id="Group_35" data-name="Group 35">
        <path id="Path_8" data-name="Path 8" d="M151.881,144.653l-8.348-5.008a2.837,2.837,0,0,0-3.893,3.893l5.009,8.348a2.929,2.929,0,0,0,4.584.564l3.212-3.212A2.929,2.929,0,0,0,151.881,144.653Z" transform="translate(-139.234 -139.238)" fill="#fff"/>
      </g>
    </g>
    <g id="Group_38" data-name="Group 38" transform="translate(9.106 3.759)">
      <g id="Group_37" data-name="Group 37">
        <path id="Path_9" data-name="Path 9" d="M243.639,99.1a2.893,2.893,0,0,0-2.068-1.475l-6.176-1.348a3.054,3.054,0,0,0-2.286.549,4.011,4.011,0,0,1,1.235.485l8.348,5.009a4.157,4.157,0,0,1,.587.436l.486-1.09A2.916,2.916,0,0,0,243.639,99.1Z" transform="translate(-233.108 -96.231)" fill="#fff"/>
      </g>
    </g>
  </g>
</svg>
