<svg id="diary_icon" xmlns="http://www.w3.org/2000/svg" width="35" height="35" viewBox="0 0 35 35">
  <circle id="Ellipse_6" data-name="Ellipse 6" cx="17.5" cy="17.5" r="17.5" fill="#0177ff"/>
  <g id="_004-milk-bottle" data-name="004-milk-bottle" transform="translate(12 8)">
    <g id="Group_39" data-name="Group 39" transform="translate(0)">
      <path id="Path_18" data-name="Path 18" d="M130.98,2.6a1.3,1.3,0,0,0-.067-2.6h-6.522a1.3,1.3,0,0,0-.067,2.6c-.407,3.682-1.889,3.925-1.889,7.629v7.812A1.959,1.959,0,0,0,124.392,20h6.522a1.959,1.959,0,0,0,1.957-1.957V10.231C132.87,6.521,131.389,6.294,130.98,2.6Zm-3.754,5.461a4.422,4.422,0,0,0-2.992-.7,8.555,8.555,0,0,1,.414-.98,11.54,11.54,0,0,0,.987-3.77h4.033a11.539,11.539,0,0,0,.987,3.77,8.59,8.59,0,0,1,.545,1.378A3.392,3.392,0,0,1,127.227,8.063Z" transform="translate(-122.435)" fill="#fff"/>
    </g>
  </g>
</svg>
