<svg id="fruit_icon" xmlns="http://www.w3.org/2000/svg" width="35" height="35" viewBox="0 0 35 35">
  <circle id="Ellipse_9" data-name="Ellipse 9" cx="17.5" cy="17.5" r="17.5" fill="#2ea648"/>
  <g id="_002-bananas" data-name="002-bananas" transform="translate(7 7.299)">
    <path id="Path_10" data-name="Path 10" d="M10.435,185.2a13.765,13.765,0,0,0,1.9-1.712,17.322,17.322,0,0,1-8.524,2.246H.586a.586.586,0,0,0-.586.586v.314a3.244,3.244,0,0,0,1.061,2.469,1.761,1.761,0,0,1,1.722-1.4A12.539,12.539,0,0,0,10.435,185.2Z" transform="translate(0 -176.325)" fill="#fff"/>
    <path id="Path_11" data-name="Path 11" d="M59.643,192.263a8.279,8.279,0,0,0,8.225-7.293A13.987,13.987,0,0,1,56.819,190.3a.586.586,0,0,0-.586.586v.314a3.4,3.4,0,0,0,1.654,2.924c0-.033,0-.067,0-.1a1.76,1.76,0,0,1,1.758-1.758Z" transform="translate(-54.037 -177.745)" fill="#fff"/>
    <path id="Path_12" data-name="Path 12" d="M338.6,4.389a1.752,1.752,0,0,1,1.265-.539h.628a4.9,4.9,0,0,1,.894.082,5.123,5.123,0,0,0-.37-3.607.586.586,0,0,0-.786-.262l-2.51,1.255a.586.586,0,0,0-.262.786Z" transform="translate(-324.217 -0.001)" fill="#fff"/>
    <path id="Path_13" data-name="Path 13" d="M139.788,128.533h-.628a.586.586,0,0,0-.586.586v.628a9.45,9.45,0,0,1-9.455,9.455.586.586,0,0,0-.586.586,3.721,3.721,0,0,0,3.724,3.724,11.248,11.248,0,0,0,11.255-11.255A3.728,3.728,0,0,0,139.788,128.533Z" transform="translate(-123.512 -123.512)" fill="#fff"/>
  </g>
</svg>
