<svg id="meat_icon" xmlns="http://www.w3.org/2000/svg" width="35" height="35" viewBox="0 0 35 35">
  <circle id="Ellipse_5" data-name="Ellipse 5" cx="17.5" cy="17.5" r="17.5" fill="#ff2b66"/>
  <g id="_003-meat" data-name="003-meat" transform="translate(7 7)">
    <path id="Path_14" data-name="Path 14" d="M12.587,330.665H3.413A4.584,4.584,0,0,1,0,329.148l0,.537v.455a2.44,2.44,0,0,0,2.443,2.433H12.586c4.208,0,7.412-2.718,7.412-4.078V326.44A8.586,8.586,0,0,1,12.587,330.665Z" transform="translate(0 -314.654)" fill="#fff"/>
    <path id="Path_15" data-name="Path 15" d="M19.982,33.441a7.49,7.49,0,0,0-7.4-6.908h-.029A7.4,7.4,0,0,0,5.382,32.2a3.173,3.173,0,0,1-2.545,2.393,3.416,3.416,0,0,0,.575,6.782h9.174A7.415,7.415,0,0,0,19.982,33.441Zm-7.15,6.775H3.3a2.161,2.161,0,0,1-2.158-2.16,1.889,1.889,0,0,1,1.486-2.007,6.328,6.328,0,0,0,4.2-4.035,6.157,6.157,0,1,1,6,8.2Z" transform="translate(0 -26.533)" fill="#fff"/>
    <path id="Path_16" data-name="Path 16" d="M69.479,91.222a4.942,4.942,0,0,0-4.7,3.32,7.7,7.7,0,0,1-2.431,3.433,7.2,7.2,0,0,1-2.568,1.319c-.421.117-.626.275-.626.868a.981.981,0,0,0,.982.978h9.476c3.487-.447,4.955-2.79,4.851-5.176A4.98,4.98,0,0,0,69.479,91.222ZM68.15,94.985a2,2,0,1,1,2,1.988A2,2,0,0,1,68.15,94.985Z" transform="translate(-56.84 -88.695)" fill="#fff"/>
    <path id="Path_17" data-name="Path 17" d="M320.008,167.477a.817.817,0,1,0-.817.817A.817.817,0,0,0,320.008,167.477Z" transform="translate(-305.885 -161.164)" fill="#fff"/>
  </g>
</svg>
