<svg id="pantryapp_logo" xmlns="http://www.w3.org/2000/svg" width="191" height="48.778" viewBox="0 0 191 48.778">
  <text id="pantryapp" transform="translate(69 32)" font-size="22" font-family="Montserrat-ExtraBold, Montserrat" font-weight="800"><tspan x="0" y="0">pantryapp</tspan></text>
  <g id="harvest" transform="translate(0.009 -0.017)">
    <path id="Path_31" data-name="Path 31" d="M145.226,225.26l.084-.016a3.794,3.794,0,0,0,2.985-4.458l-2.154-10.88-3.8.753Zm0,0" transform="translate(-125.745 -185.412)" fill="#fcda4f"/>
    <path id="Path_32" data-name="Path 32" d="M119.081,23.647c-4.357-.091-8,5.077-8.135,11.543s3.286,11.783,7.643,11.874,8-5.076,8.135-11.543-3.286-11.783-7.643-11.875Zm0,0" transform="translate(-98.013 -20.874)" fill="#ccc033"/>
    <path id="Path_33" data-name="Path 33" d="M122.969,32.481a17.712,17.712,0,0,0-4.3-8.746c-4.263.243-7.7,5.485-7.719,11.848-.019,6.225,3.24,11.253,7.373,11.548,3.9-2.095,5.94-8.142,4.652-14.649Zm0,0" transform="translate(-98.015 -20.952)" fill="#99af17"/>
    <path id="Path_34" data-name="Path 34" d="M116.4,230.964l-.084.017A3.793,3.793,0,0,1,111.861,228l-2.154-10.88,3.8-.753Zm0,0" transform="translate(-96.921 -191.116)" fill="#fcda4f"/>
    <path id="Path_35" data-name="Path 35" d="M15.84,56.883c-2.589-5.927-7.926-9.317-11.919-7.573S-1.21,57.275,1.379,63.2s7.926,9.317,11.92,7.573S18.43,62.81,15.84,56.883Zm0,0" transform="translate(0 -43.14)" fill="#99af17"/>
    <path id="Path_36" data-name="Path 36" d="M59.989,11.827C58.514,4.375,53.228-.857,48.183.141s-7.939,7.85-6.463,15.3S48.48,28.128,53.525,27.129s7.939-7.849,6.463-15.3Zm0,0" transform="translate(-36.522 -0.002)" fill="#eacf32"/>
    <path id="Path_37" data-name="Path 37" d="M46.682,14.458C45.458,8.277,47.24,2.509,50.763.152A6.538,6.538,0,0,0,48.182.139c-5.045,1-7.938,7.849-6.463,15.3S48.48,28.124,53.525,27.126a6.552,6.552,0,0,0,2.382-1c-4.155-.837-8-5.49-9.224-11.672Zm0,0" transform="translate(-36.522)" fill="#ccc033"/>
    <path id="Path_38" data-name="Path 38" d="M88.751,97.684a6.9,6.9,0,0,1-3.516-1.072.7.7,0,0,1,.783-1.16,5.184,5.184,0,0,0,3.475.758,4.035,4.035,0,0,0,2.542-1.94.7.7,0,1,1,1.178.755,5.372,5.372,0,0,1-3.448,2.558,5.017,5.017,0,0,1-1.014.1Zm0,0" transform="translate(-75.031 -82.976)" fill="#ffeea4"/>
    <path id="Path_39" data-name="Path 39" d="M84.747,139a9.41,9.41,0,0,1-5.405-2.114.7.7,0,0,1,.9-1.068c.027.022,2.709,2.25,5.4,1.692,1.53-.317,2.814-1.5,3.816-3.507a.7.7,0,1,1,1.252.624c-1.2,2.417-2.818,3.849-4.793,4.255a5.783,5.783,0,0,1-1.171.118Zm0,0" transform="translate(-69.879 -118.022)" fill="#ffeea4"/>
    <path id="Path_40" data-name="Path 40" d="M110.079,75.553a.961.961,0,0,0-1.873.368l4.652,28.639a.811.811,0,0,0,.066.212,1.842,1.842,0,0,0,2.139,1.216l.02-.005.023,0a1.81,1.81,0,0,0,1.481-1.933.784.784,0,0,0-.019-.217Zm0,0" transform="translate(-95.586 -66.138)" fill="#fff9dc"/>
    <path id="Path_41" data-name="Path 41" d="M114.048,104.551a.794.794,0,0,1-.066-.212L109.33,75.7a.849.849,0,0,1,.244-.731,1.007,1.007,0,0,0-.6-.061.919.919,0,0,0-.772,1.014l4.652,28.639a.806.806,0,0,0,.066.212,1.841,1.841,0,0,0,2.139,1.216l.02,0,.023,0a1.9,1.9,0,0,0,.521-.186,1.81,1.81,0,0,1-1.578-1.244Zm0,0" transform="translate(-95.586 -66.139)" fill="#fff4c1"/>
    <path id="Path_42" data-name="Path 42" d="M278.878,122.625a2.6,2.6,0,0,1-1.235-3.1l5.905-17.395a5.9,5.9,0,1,1,10.216,5.656l-11.607,14.239a2.6,2.6,0,0,1-3.279.6Zm0,0" transform="translate(-245.155 -86.797)" fill="#ff624b"/>
    <path id="Path_43" data-name="Path 43" d="M399.473,31.759h0a2.631,2.631,0,0,0,.466-.61,2.761,2.761,0,0,0-4.83-2.674,2.642,2.642,0,0,0-.27.718h0V29.2q-.022.1-.036.209l-.824,4.827a.972.972,0,0,0,1.584.894l3.671-3.165a2.628,2.628,0,0,0,.233-.2Zm0,0" transform="translate(-348.029 -23.93)" fill="#eacf32"/>
    <g id="Group_82" data-name="Group 82" transform="translate(34.791 16.635)">
      <path id="Path_44" data-name="Path 44" d="M302.065,230a.694.694,0,0,1-.278-.058l-2.97-1.291a.7.7,0,1,1,.558-1.283l2.97,1.291a.7.7,0,0,1-.279,1.342Zm0,0" transform="translate(-298.396 -217.417)" fill="#ff4b34"/>
      <path id="Path_45" data-name="Path 45" d="M333.251,207.566a.7.7,0,0,1-.278-.058l-3.862-1.677a.7.7,0,0,1,.557-1.284l3.862,1.677a.7.7,0,0,1-.279,1.342Zm0,0" transform="translate(-325.157 -197.261)" fill="#ff4b34"/>
      <path id="Path_46" data-name="Path 46" d="M326.932,167.4a.691.691,0,0,1-.278-.058l-2.97-1.291a.7.7,0,1,1,.557-1.283l2.97,1.29a.7.7,0,0,1-.279,1.342Zm0,0" transform="translate(-320.363 -162.123)" fill="#ff4b34"/>
      <path id="Path_47" data-name="Path 47" d="M359.137,146.23a.7.7,0,0,1-.278-.058l-5.327-2.313a.7.7,0,0,1,.557-1.284l5.327,2.313a.7.7,0,0,1-.279,1.342Zm0,0" transform="translate(-346.73 -142.517)" fill="#ff4b34"/>
    </g>
    <path id="Path_48" data-name="Path 48" d="M395.245,35.312c0-.017,0-.034.006-.051l.824-4.827c.009-.07.021-.14.036-.209v-.008h0a2.642,2.642,0,0,1,.269-.718,2.715,2.715,0,0,1,3.405-1.164,2.806,2.806,0,0,0-.961-.873,2.726,2.726,0,0,0-3.718,1.016,2.632,2.632,0,0,0-.269.718h0V29.2c-.015.069-.027.139-.036.209l-.824,4.827a.962.962,0,0,0,.49,1,.978.978,0,0,0,.778.075Zm0,0" transform="translate(-348.028 -23.931)" fill="#ccc033"/>
    <path id="Path_49" data-name="Path 49" d="M361.63,45.955l-.828-3.9a2.144,2.144,0,0,0-.052-.248l0-.007h0a2.243,2.243,0,0,0-.254-.583,2.286,2.286,0,0,0-3.082-.788,2.166,2.166,0,0,0-.731,3.024,2.288,2.288,0,0,0,.409.492h0l.005,0c.044.04.089.077.136.113l3.137,2.62a.794.794,0,0,0,.908.081A.75.75,0,0,0,361.63,45.955Zm0,0" transform="translate(-314.798 -35.43)" fill="#fce575"/>
    <path id="Path_50" data-name="Path 50" d="M358.8,43.346c-.046-.036-.092-.073-.136-.113l-.005,0h0a2.277,2.277,0,0,1-.409-.492,2.176,2.176,0,0,1,.215-2.6,2.215,2.215,0,0,0-1.057.3,2.166,2.166,0,0,0-.731,3.024,2.288,2.288,0,0,0,.409.492h0l.005,0c.044.04.089.077.136.113l3.137,2.62a.794.794,0,0,0,.908.081.75.75,0,0,0,.355-.807l-.066-.312Zm0,0" transform="translate(-314.798 -35.438)" fill="#eacf32"/>
    <path id="Path_51" data-name="Path 51" d="M406.819,80.112a2.287,2.287,0,0,0-2.3-2.194,2.247,2.247,0,0,0-.629.094h0l-.007,0a2.213,2.213,0,0,0-.238.087L399.9,79.471a.751.751,0,0,0-.5.729.794.794,0,0,0,.551.727l3.886,1.268c.055.021.111.039.168.055l.007,0h0a2.282,2.282,0,0,0,.634.086A2.166,2.166,0,0,0,406.819,80.112Zm0,0" transform="translate(-352.83 -68.816)" fill="#fce575"/>
    <path id="Path_52" data-name="Path 52" d="M406.218,90.029a2.279,2.279,0,0,1-.634-.085h0l-.007,0c-.057-.016-.113-.035-.168-.055l-3.886-1.268a.794.794,0,0,1-.551-.726.748.748,0,0,1,.132-.448l-1.209.442a.751.751,0,0,0-.5.729.794.794,0,0,0,.551.726l3.886,1.268c.055.02.111.039.168.055l.007,0h0a2.282,2.282,0,0,0,.634.086,2.2,2.2,0,0,0,1.627-.725Zm0,0" transform="translate(-352.83 -77.232)" fill="#eacf32"/>
    <path id="Path_53" data-name="Path 53" d="M280.727,120.317l5.905-17.395a5.724,5.724,0,0,1,5.357-3.86l-.052-.03a5.824,5.824,0,0,0-8.39,3.1l-5.905,17.395a2.6,2.6,0,0,0,1.235,3.1,2.644,2.644,0,0,0,2.3.133,2.567,2.567,0,0,1-.451-2.44Zm0,0" transform="translate(-245.154 -86.797)" fill="#ff4b34"/>
    <path id="Path_54" data-name="Path 54" d="M230.02,110.647a.671.671,0,0,1-.659-.645l-.293-4.967a.676.676,0,0,1,.659-.729h.585a.676.676,0,0,1,.659.729L230.679,110A.672.672,0,0,1,230.02,110.647Zm0,0" transform="translate(-202.362 -92.126)" fill="#bf6c0d"/>
    <path id="Path_55" data-name="Path 55" d="M240.032,104.6c3.988,2.209,5.076-2.388,5.321-3.893a.454.454,0,0,0-.375-.528c-1.486-.206-6.207-.525-5.279,3.961a.679.679,0,0,0,.333.459Zm0,0" transform="translate(-211.647 -88.391)" fill="#eacf32"/>
    <path id="Path_56" data-name="Path 56" d="M229.978,110l-.292-4.967a.676.676,0,0,1,.643-.728h-.6a.676.676,0,0,0-.659.729l.293,4.967a.672.672,0,0,0,.659.645.639.639,0,0,0,.308-.079A.689.689,0,0,1,229.978,110Zm0,0" transform="translate(-202.362 -92.125)" fill="#8c4c17"/>
    <path id="Path_57" data-name="Path 57" d="M153.981,139.606a6.966,6.966,0,0,0-5.9,1.62,6.968,6.968,0,0,0-5.9-1.62c-4.19.9-6.692,5.93-5.589,11.231s5.394,8.869,9.584,7.968a6.275,6.275,0,0,0,1.908-.755,6.275,6.275,0,0,0,1.908.755c4.19.9,8.481-2.666,9.584-7.968S158.171,140.507,153.981,139.606Zm0,0" transform="translate(-120.435 -123.187)" fill="#ff624b"/>
    <path id="Path_58" data-name="Path 58" d="M240.9,104.737c-.793-3.836,2.542-4.159,4.455-4.043a.453.453,0,0,0-.376-.518c-1.486-.207-6.207-.526-5.279,3.961a.682.682,0,0,0,.334.459,5.247,5.247,0,0,0,1.008.438A.694.694,0,0,1,240.9,104.737Zm0,0" transform="translate(-211.647 -88.389)" fill="#ccc033"/>
    <path id="Path_59" data-name="Path 59" d="M140.187,150.84c-1.061-5.1,1.211-9.94,5.11-11.108a6.346,6.346,0,0,0-3.124-.124c-4.19.9-6.692,5.93-5.589,11.231s5.394,8.869,9.584,7.968c.162-.035.322-.077.478-.123C143.627,157.807,141.014,154.81,140.187,150.84Zm0,0" transform="translate(-120.434 -123.189)" fill="#ff4b34"/>
    <path id="Path_60" data-name="Path 60" d="M37.008,197.183V170.52a1.13,1.13,0,0,1,1.13-1.13h5.34a1.13,1.13,0,0,1,1.13,1.13v26.663a1.129,1.129,0,0,1-1.13,1.129h-5.34A1.129,1.129,0,0,1,37.008,197.183Zm0,0" transform="translate(-32.7 -149.621)" fill="#db9c2e"/>
    <path id="Path_61" data-name="Path 61" d="M361.84,197.183V170.52a1.13,1.13,0,0,1,1.13-1.13h5.34a1.13,1.13,0,0,1,1.13,1.13v26.663a1.129,1.129,0,0,1-1.13,1.129h-5.34A1.13,1.13,0,0,1,361.84,197.183Zm0,0" transform="translate(-319.651 -149.621)" fill="#db9c2e"/>
    <path id="Path_62" data-name="Path 62" d="M58.321,198.865H8.174A1.166,1.166,0,0,1,7.008,197.7v-5.248a1.166,1.166,0,0,1,1.166-1.166H58.321a1.166,1.166,0,0,1,1.166,1.166V197.7A1.166,1.166,0,0,1,58.321,198.865Zm0,0" transform="translate(-6.199 -168.963)" fill="#ffc34c"/>
    <path id="Path_63" data-name="Path 63" d="M58.321,279.865H8.174A1.166,1.166,0,0,1,7.008,278.7v-5.248a1.166,1.166,0,0,1,1.166-1.166H58.321a1.166,1.166,0,0,1,1.166,1.166V278.7A1.166,1.166,0,0,1,58.321,279.865Zm0,0" transform="translate(-6.199 -240.516)" fill="#ffc34c"/>
    <path id="Path_64" data-name="Path 64" d="M58.321,360.865H8.174A1.166,1.166,0,0,1,7.008,359.7v-5.248a1.166,1.166,0,0,1,1.166-1.166H58.321a1.166,1.166,0,0,1,1.166,1.166V359.7A1.166,1.166,0,0,1,58.321,360.865Zm0,0" transform="translate(-6.199 -312.07)" fill="#ffc34c"/>
    <path id="Path_65" data-name="Path 65" d="M433.708,370.062a.7.7,0,0,1-.7-.7v-3.382a.7.7,0,0,1,1.4,0v3.382A.7.7,0,0,1,433.708,370.062Zm0,0" transform="translate(-382.519 -322.667)" fill="#ffd551"/>
    <path id="Path_66" data-name="Path 66" d="M386.34,374.451a1.166,1.166,0,1,1-1.166-1.166A1.166,1.166,0,0,1,386.34,374.451Zm0,0" transform="translate(-339.233 -329.738)" fill="#ffdf74"/>
    <path id="Path_67" data-name="Path 67" d="M386.34,293.451a1.166,1.166,0,1,1-1.166-1.166A1.166,1.166,0,0,1,386.34,293.451Zm0,0" transform="translate(-339.233 -258.184)" fill="#ffdf74"/>
    <path id="Path_68" data-name="Path 68" d="M386.34,212.451a1.166,1.166,0,1,1-1.166-1.166A1.166,1.166,0,0,1,386.34,212.451Zm0,0" transform="translate(-339.233 -186.63)" fill="#ffdf74"/>
    <path id="Path_69" data-name="Path 69" d="M14,278.7v-5.248a1.166,1.166,0,0,1,1.166-1.166h-7a1.166,1.166,0,0,0-1.166,1.166V278.7a1.166,1.166,0,0,0,1.166,1.166h7A1.166,1.166,0,0,1,14,278.7Zm0,0" transform="translate(-6.199 -240.516)" fill="#f9bb32"/>
    <path id="Path_70" data-name="Path 70" d="M14,359.7v-5.248a1.166,1.166,0,0,1,1.166-1.166h-7a1.166,1.166,0,0,0-1.166,1.166V359.7a1.166,1.166,0,0,0,1.166,1.166h7A1.166,1.166,0,0,1,14,359.7Zm0,0" transform="translate(-6.199 -312.07)" fill="#f9bb32"/>
    <path id="Path_71" data-name="Path 71" d="M14,197.7v-5.248a1.166,1.166,0,0,1,1.166-1.166h-7a1.166,1.166,0,0,0-1.166,1.166V197.7a1.166,1.166,0,0,0,1.166,1.166h7A1.166,1.166,0,0,1,14,197.7Zm0,0" transform="translate(-6.199 -168.963)" fill="#f9bb32"/>
    <path id="Path_72" data-name="Path 72" d="M62.34,212.451a1.166,1.166,0,1,1-1.166-1.166A1.166,1.166,0,0,1,62.34,212.451Zm0,0" transform="translate(-53.018 -186.63)" fill="#ffdf74"/>
    <path id="Path_73" data-name="Path 73" d="M62.34,293.451a1.166,1.166,0,1,1-1.166-1.166A1.166,1.166,0,0,1,62.34,293.451Zm0,0" transform="translate(-53.018 -258.184)" fill="#ffdf74"/>
    <path id="Path_74" data-name="Path 74" d="M62.34,374.451a1.166,1.166,0,1,1-1.166-1.166A1.166,1.166,0,0,1,62.34,374.451Zm0,0" transform="translate(-53.018 -329.738)" fill="#ffdf74"/>
    <path id="Path_75" data-name="Path 75" d="M60.824,294.967v-2.225a1.166,1.166,0,0,0,0,2.225Zm0,0" transform="translate(-53.018 -258.588)" fill="#ffd551"/>
    <path id="Path_76" data-name="Path 76" d="M60.824,375.967v-2.225a1.166,1.166,0,0,0,0,2.225Zm0,0" transform="translate(-53.018 -330.141)" fill="#ffd551"/>
    <path id="Path_77" data-name="Path 77" d="M60.824,213.967v-2.225a1.166,1.166,0,0,0,0,2.225Zm0,0" transform="translate(-53.018 -187.034)" fill="#ffd551"/>
    <path id="Path_78" data-name="Path 78" d="M118.055,205.826a2.041,2.041,0,1,1-2.041-2.041A2.041,2.041,0,0,1,118.055,205.826Zm0,0" transform="translate(-100.69 -180.005)" fill="#f9bb32"/>
    <path id="Path_79" data-name="Path 79" d="M178.055,286.826a2.041,2.041,0,1,1-2.041-2.041A2.041,2.041,0,0,1,178.055,286.826Zm0,0" transform="translate(-153.693 -251.559)" fill="#f9bb32"/>
    <path id="Path_80" data-name="Path 80" d="M433.708,289.062a.7.7,0,0,1-.7-.7v-3.382a.7.7,0,0,1,1.4,0v3.382A.7.7,0,0,1,433.708,289.062Zm0,0" transform="translate(-382.519 -251.113)" fill="#ffd551"/>
    <path id="Path_81" data-name="Path 81" d="M433.708,205.062a.7.7,0,0,1-.7-.7v-3.382a.7.7,0,1,1,1.4,0v3.382A.7.7,0,0,1,433.708,205.062Zm0,0" transform="translate(-382.519 -176.909)" fill="#ffd551"/>
  </g>
</svg>
